<?xml version="1.0" encoding="UTF-8"?>
<svg version="1.1" viewBox="0 0 22 21" xmlns="http://www.w3.org/2000/svg">
<path d="m8.9285 6.2168v4.5059h1.0921v-5.8702z" fill="#93795d"/>
<path d="m13.297 10.723v-4.5055l-1.0921-1.3643v5.8698z" fill="#93795d"/>
<path d="m10.687 0.23312c0.2187-0.27307 0.6338-0.27307 0.8524 0l9.5823 11.97c0.2864 0.3578 0.0319 0.8883-0.4262 0.8883h-19.165c-0.45809 0-0.7126-0.5305-0.42617-0.8883zm-7.6397 11.583 8.0659-10.076 8.0659 10.076z" clip-rule="evenodd" fill="#93795d" fill-rule="evenodd"/>
<path d="m3.8317 3.5266h2.8187l-0.87507 1.0931h-1.3976v1.7458l-1.0922 1.3643v-3.6566c0-0.30185 0.24449-0.54654 0.54608-0.54654z" fill="#93795d"/>
<path d="m4.3778 19.194v-5.01h-1.0922v5.5565c0 0.3019 0.24449 0.5465 0.54608 0.5465h5.6429c0.30159 0 0.54604-0.2446 0.54604-0.5465v-5.5565h-1.0921v5.01z" fill="#93795d"/>
<path d="m12.205 19.741v-5.5565h1.0921v5.01h4.5507v-5.01h1.0922v5.5565c0 0.3019-0.2445 0.5465-0.5461 0.5465h-5.6428c-0.3016 0-0.5461-0.2446-0.5461-0.5465z" fill="#93795d"/>
<path d="m17.848 4.6196v1.7462l1.0922 1.3643v-3.657c0-0.30185-0.2445-0.54654-0.5461-0.54654h-2.819l0.875 1.0931z" fill="#93795d"/>
</svg>
