<?xml version="1.0" encoding="UTF-8"?>
<svg version="1.1" viewBox="0 0 110 12" xmlns="http://www.w3.org/2000/svg">
<path d="m2.2435 0.79857v4.5394h6.0351v-4.5394h1.4219v10.785h-1.4219v-4.8774h-6.0351v4.8774h-1.4219v-10.785z" fill="#93795d"/>
<path d="m18.453 0.55711c0.8004 0 1.5377 0.15024 2.2118 0.45072 0.6741 0.28975 1.2639 0.69218 1.7695 1.2073 0.5055 0.5151 0.8952 1.1161 1.1691 1.8029 0.2843 0.6761 0.4265 1.4004 0.4265 2.1731s-0.1422 1.5024-0.4265 2.1892c-0.2739 0.6761-0.6636 1.2717-1.1691 1.7868-0.5056 0.5151-1.0954 0.9229-1.7695 1.2234-0.6741 0.2897-1.4114 0.4346-2.2118 0.4346-0.8005 0-1.5378-0.1449-2.2119-0.4346-0.6741-0.3005-1.2639-0.7083-1.7694-1.2234-0.5056-0.5151-0.9006-1.1107-1.185-1.7868-0.2738-0.6868-0.4107-1.4165-0.4107-2.1892s0.1369-1.497 0.4107-2.1731c0.2844-0.68682 0.6794-1.2878 1.185-1.8029 0.5055-0.51511 1.0953-0.91754 1.7694-1.2073 0.6741-0.30048 1.4114-0.45072 2.2119-0.45072zm0 1.4166c-0.79 0-1.4957 0.18243-2.1171 0.5473s-1.1112 0.86925-1.4693 1.5131c-0.3581 0.6331-0.5371 1.3522-0.5371 2.157 0 0.8049 0.179 1.5239 0.5371 2.157 0.3581 0.6332 0.8479 1.1376 1.4693 1.5132 0.6214 0.3648 1.3271 0.5473 2.1171 0.5473 0.7899 0 1.4956-0.1825 2.117-0.5473 0.6214-0.3756 1.1112-0.88 1.4693-1.5132 0.3581-0.6331 0.5371-1.3521 0.5371-2.157 0-0.8048-0.179-1.5239-0.5371-2.157-0.3581-0.64389-0.8479-1.1483-1.4693-1.5131s-1.3271-0.5473-2.117-0.5473z" fill="#93795d"/>
<path d="m35.767 0.76638v6.5515c0 0.9336-0.1948 1.7385-0.5845 2.4146-0.3792 0.6653-0.8953 1.1751-1.5483 1.5292s-1.3956 0.5312-2.2277 0.5312c-0.8215 0-1.564-0.1771-2.2276-0.5312-0.653-0.3541-1.1744-0.8639-1.5641-1.5292-0.3791-0.6761-0.5687-1.481-0.5687-2.4146v-6.5515h1.4219v6.5032c0 0.7298 0.1316 1.32 0.3949 1.7707 0.2739 0.4507 0.632 0.778 1.0744 0.9819 0.4529 0.1932 0.9426 0.2898 1.4692 0.2898 0.5267-0.0108 1.0112-0.1127 1.4535-0.3059 0.4529-0.2039 0.811-0.5258 1.0744-0.9658 0.2738-0.4507 0.4107-1.0409 0.4107-1.7707v-6.5032z" fill="#93795d"/>
<path d="m42.292 0.6376c0.6214 0 1.1322 0.09122 1.5325 0.27365 0.4108 0.18243 0.7689 0.3756 1.0743 0.5795v1.497c-0.2949-0.22536-0.653-0.43462-1.0743-0.62779-0.4213-0.2039-0.8795-0.30584-1.3745-0.30584-0.316 0-0.6478 0.05902-0.9953 0.17706-0.3371 0.10732-0.6215 0.28439-0.8532 0.53121s-0.3475 0.5634-0.3475 0.94973c0 0.42925 0.1527 0.75655 0.4581 0.98195 0.3055 0.2253 0.6741 0.44 1.1059 0.6439l1.4535 0.676c0.7268 0.3327 1.2745 0.7029 1.6431 1.1107s0.553 0.9498 0.553 1.6258c0 0.5903-0.1686 1.1108-0.5056 1.5615-0.337 0.44-0.7794 0.7887-1.3271 1.0463-0.5477 0.2575-1.148 0.3863-1.8011 0.3863-0.6109 0-1.1743-0.1073-1.6904-0.3219-0.5161-0.2147-0.9638-0.4561-1.3429-0.7244v-1.497c0.4107 0.2897 0.8794 0.5526 1.4061 0.7887 0.5371 0.2254 1.1427 0.3381 1.8168 0.3381 0.5266 0 0.9901-0.1342 1.3903-0.4025 0.4003-0.2682 0.6004-0.6385 0.6004-1.1107 0-0.2682-0.0843-0.499-0.2528-0.6921-0.158-0.1932-0.3528-0.3595-0.5846-0.499-0.2317-0.1396-0.4581-0.2576-0.6793-0.3542l-1.7537-0.8048c-0.7583-0.3434-1.2744-0.7459-1.5483-1.2073-0.2738-0.4615-0.4107-0.9927-0.4107-1.5936 0-0.56877 0.158-1.0785 0.4739-1.5292 0.3265-0.46145 0.7584-0.82632 1.2955-1.0946 0.5372-0.26829 1.1165-0.40243 1.7379-0.40243z" fill="#93795d"/>
<path d="m55.214 5.3702v1.3682h-5.1504v3.477h5.8298v1.3682h-7.2517v-10.785h7.2517v1.3683h-5.8298v3.2034z" fill="#93795d"/>
<path d="m67 0.79857v1.3683h-3.6495v9.3686h-1.4219v-9.3686h-3.6496v-1.3683z" fill="#93795d"/>
<path d="m72.655 0.79857 4.945 10.785h-1.706l-1.106-2.5755h-4.961l-1.1217 2.5755h-1.7062l4.9449-10.785zm-0.332 2.4468-1.9114 4.3945h3.7914z" fill="#93795d"/>
<path d="m83.872 0.54102c0.779 0 1.453 0.13414 2.022 0.40242 0.579 0.25756 1.027 0.61169 1.343 1.0624s0.474 0.9712 0.474 1.5614c0 0.52582-0.148 1.0087-0.443 1.4487-0.295 0.4293-0.663 0.7512-1.106 0.9658 0.316 0.0644 0.627 0.1986 0.933 0.4025 0.305 0.2039 0.558 0.4829 0.758 0.837 0.211 0.3542 0.316 0.7941 0.316 1.32 0 0.6009-0.169 1.1429-0.506 1.6258s-0.821 0.8692-1.453 1.159c-0.622 0.279-1.359 0.4185-2.212 0.4185-0.653 0-1.338-0.0429-2.054-0.1288-0.706-0.0751-1.306-0.1663-1.801-0.2736v-10.399c0.548-0.12877 1.143-0.22536 1.785-0.28974 0.653-0.07512 1.301-0.11268 1.944-0.11268zm-0.095 1.3682c-0.443 0-0.843 0.0161-1.201 0.04829-0.348 0.0322-0.685 0.08049-1.011 0.14488v3.3804h2.48c0.717 0 1.264-0.1824 1.643-0.5473 0.38-0.3756 0.569-0.8102 0.569-1.3038 0-0.38633-0.116-0.7029-0.347-0.94973-0.232-0.25755-0.538-0.45072-0.917-0.57949-0.368-0.12878-0.774-0.19317-1.216-0.19317zm-2.212 8.2739c0.379 0.0751 0.8 0.1288 1.264 0.161 0.463 0.0214 0.842 0.0322 1.137 0.0322 0.79 0 1.443-0.1664 1.959-0.4991 0.527-0.3326 0.79-0.778 0.79-1.336 0-0.5902-0.258-1.0302-0.774-1.32-0.505-0.3005-1.127-0.4507-1.864-0.4507h-2.512z" fill="#93795d"/>
<path d="m93.034 0.79857v9.4168h5.83v1.3682h-7.252v-10.785z" fill="#93795d"/>
<path d="m108.88 5.3702v1.3682h-5.151v3.477h5.83v1.3682h-7.251v-10.785h7.251v1.3683h-5.83v3.2034z" fill="#93795d"/>
</svg>
